<svg width="79" height="88" viewBox="0 0 79 88" fill="none" xmlns="http://www.w3.org/2000/svg">
<path fill-rule="evenodd" clip-rule="evenodd" d="M78.2222 53.4038V22.3313C78.2222 9.99863 67.9024 0 55.1736 0H23.0486C10.3198 0 0 9.99863 0 22.3313V53.4038C0 65.7365 10.3198 75.7351 23.0408 75.7351H25.3799L37.1839 87.1718L37.1917 87.1793L37.3937 87.3751C37.8522 87.7666 38.4506 88 39.1111 88C39.826 88 40.471 87.7139 40.9373 87.2622L52.8424 75.7351H55.1736C67.9024 75.7351 78.2222 65.7365 78.2222 53.4038ZM17.0381 25.6901V32.3808H30.7304V25.6901C30.7304 21.9967 27.6636 18.9995 23.8842 18.9995C20.1049 18.9995 17.0381 21.9967 17.0381 25.6901ZM59.6479 32.381H45.9556V25.6903C45.9556 21.9969 49.0224 18.9997 52.8018 18.9997C56.5811 18.9997 59.6479 21.9969 59.6479 25.6903V32.381ZM29.667 47.667C27.4579 47.667 25.667 49.4579 25.667 51.667V54.667C25.667 56.8761 27.4578 58.667 29.667 58.667H47.3337C49.5428 58.667 51.3337 56.8761 51.3337 54.667V51.667C51.3337 49.4579 49.5428 47.667 47.3337 47.667H29.667Z" fill="#D3E2E5"/>
</svg>
