<svg width="260" height="234" viewBox="0 0 260 234" fill="none" xmlns="http://www.w3.org/2000/svg">
<path fill-rule="evenodd" clip-rule="evenodd" d="M29.1806 167.049C25.1994 167.049 20.4745 167.89 15.3121 173.853V157.165C15.3121 152.949 11.8778 149.52 7.65607 149.52C3.43429 149.52 0 152.949 0 157.165V211.588C0 215.804 3.43429 219.233 7.65607 219.233C11.8778 219.233 15.3121 215.804 15.3121 211.588V190.465C15.3121 184.393 18.1996 181.04 23.4604 181.04C28.6118 181.04 31.3242 184.295 31.3242 190.465V211.588C31.3242 215.804 34.7585 219.233 38.9803 219.233C43.2021 219.233 46.6364 215.804 46.6364 211.588V186.031C46.6254 174.148 40.1069 167.049 29.1806 167.049ZM73.1482 167.42C66.914 167.42 61.9704 168.229 57.1252 170.042C54.6096 170.981 52.9253 173.406 52.9253 176.071C52.9253 179.631 55.758 182.416 59.3783 182.416C60.122 182.416 60.7454 182.307 61.5985 182.023C64.5406 181.105 67.6468 180.669 71.1139 180.669C79.3387 180.669 81.0887 185.201 81.1105 189.035C78.2559 188.106 74.6576 187.254 69.6374 187.254C56.5564 187.254 49.0535 193.229 49.0535 203.659V203.845C49.0535 213.27 56.1408 219.605 66.6843 219.605C72.6232 219.605 77.3809 217.803 81.1762 214.111C81.8214 216.809 84.4136 219.244 88.3947 219.244C92.5837 219.244 95.8649 216.012 95.8649 211.883V189.351C95.8649 182.263 94.0055 176.802 90.3197 173.133C86.5135 169.343 80.7387 167.42 73.1482 167.42ZM70.928 208.65C66.5859 208.65 63.8953 206.597 63.8953 203.288V203.102C63.8953 199.159 67.1984 196.909 72.9623 196.909C75.9154 196.909 78.8575 197.488 81.2965 198.537V200.623C81.2965 205.341 77.0309 208.65 70.928 208.65ZM116.383 173.984C120.342 169.321 125.22 167.049 131.258 167.049C142.775 167.049 154.423 176.038 154.423 193.229V193.414C154.423 201.333 151.984 208.039 147.379 212.822C143.168 217.202 137.448 219.605 131.258 219.605C125.297 219.605 120.561 217.573 116.46 213.248V226.355C116.46 230.57 113.025 234 108.804 234C104.582 234 101.148 230.57 101.148 226.355V175.066C101.148 170.85 104.582 167.42 108.804 167.42C112.664 167.42 115.858 170.282 116.383 173.984ZM139.122 193.229C139.122 185.813 134.189 180.21 127.648 180.21C121.064 180.21 116.274 185.682 116.274 193.229V193.414C116.274 200.961 121.053 206.433 127.648 206.433C134.298 206.433 139.122 200.961 139.122 193.414V193.229ZM188.066 167.049C182.028 167.049 177.15 169.321 173.191 173.984C172.666 170.282 169.472 167.42 165.612 167.42C161.39 167.42 157.956 170.85 157.956 175.066V226.355C157.956 230.57 161.39 234 165.612 234C169.833 234 173.268 230.57 173.268 226.355V213.248C177.369 217.573 182.105 219.605 188.066 219.605C194.256 219.605 199.976 217.202 204.187 212.822C208.792 208.039 211.231 201.333 211.231 193.414V193.229C211.231 176.038 199.583 167.049 188.066 167.049ZM184.456 180.21C190.997 180.21 195.93 185.813 195.93 193.229V193.414C195.93 200.961 191.106 206.433 184.456 206.433C177.861 206.433 173.082 200.961 173.082 193.414V193.229C173.082 185.682 177.872 180.21 184.456 180.21ZM245.388 173.187C246.81 169.408 249.347 167.42 252.727 167.42C256.806 167.42 260.011 170.533 260 174.487C260 175.634 259.628 177.294 259.3 178.058L242.03 219.474C237.688 229.97 233.16 233.694 224.727 233.694C221.752 233.694 219.467 233.301 216.842 232.362C215.037 231.706 211.996 230.002 211.996 225.961C211.996 221.986 215.135 219.616 218.165 219.616C219.368 219.616 220.09 219.823 220.67 220.02C221.862 220.391 222.518 220.544 223.426 220.544C225.723 220.544 226.685 220.173 227.844 217.956L228.194 217.126L211.395 178.255C211.012 177.294 210.607 175.808 210.607 174.771C210.607 170.577 213.856 167.409 218.165 167.409C221.72 167.409 224.126 169.266 225.504 173.089L235.621 200.251L245.388 173.187Z" fill="white"/>
<path d="M184.889 32.1055V76.7781C184.889 94.5087 170.406 108.884 152.542 108.884H149.271L132.563 125.456C131.909 126.105 131.003 126.517 130 126.517C129.073 126.517 128.233 126.181 127.59 125.618L127.306 125.337L127.295 125.326L110.729 108.884H107.447C89.594 108.884 75.1111 94.5087 75.1111 76.7781V32.1055C75.1111 14.3749 89.594 0 107.458 0H152.542C170.406 0 184.889 14.3749 184.889 32.1055Z" fill="#FFD666"/>
<path d="M100.671 61.8857C97.4862 61.8857 95.6711 65.4875 97.5188 68.0881C104.703 78.2186 116.583 84.8235 130.005 84.8235C143.428 84.8235 155.297 78.2077 162.481 68.0881C164.329 65.4875 162.514 61.8857 159.329 61.8857H100.671Z" fill="white"/>
<path d="M119.321 46.554H100.106V36.935C100.106 31.6249 104.41 27.3159 109.714 27.3159C115.017 27.3159 119.321 31.6249 119.321 36.935V46.554Z" fill="white"/>
<path d="M159.905 46.554H140.689V36.935C140.689 31.6249 144.993 27.3159 150.297 27.3159C155.601 27.3159 159.905 31.6249 159.905 36.935V46.554Z" fill="white"/>
<path d="M100.671 61.8857C97.4862 61.8857 95.6711 65.4875 97.5188 68.0881C104.703 78.2186 116.583 84.8235 130.005 84.8235C143.428 84.8235 155.297 78.2077 162.481 68.0881C164.329 65.4875 162.514 61.8857 159.329 61.8857H100.671Z" fill="white"/>
<path d="M119.321 46.554H100.106V36.935C100.106 31.6249 104.41 27.3159 109.714 27.3159C115.017 27.3159 119.321 31.6249 119.321 36.935V46.554Z" fill="white"/>
<path d="M159.905 46.554H140.689V36.935C140.689 31.6249 144.993 27.3159 150.297 27.3159C155.601 27.3159 159.905 31.6249 159.905 36.935V46.554Z" fill="white"/>
</svg>
